PathFileType	4	(X/Y/Z)	 s02c0001.trc
DataRate	CameraRate	NumFrames	NumMarkers	Units	OrigDataRate	OrigDataStartFrame	OrigNumFrames
200	200	7	49	mm	200	1	2000
Frame#	Time	racr			lacr			c7			jug			rlel			rdr			llel			ldr			s2			lic			ric			lasi			rasi			rpsi			lpsi			rgt			lgt			rth1			rth2			rth3			rth4			rlfc			rmfc			rsh1			rsh2			rsh3			rsh4			rlmal			rmmal			rcal			rtoe			rmt5			rmt1			lth1			lth2			lth4			lth3			llfc			lmfc			lsh1			lsh2			lsh3			lsh4			llmal			lmmal			lcal			ltoe			lmt1			lmt5			
		X1	Y1	Z1	X2	Y2	Z2	X3	Y3	Z3	X4	Y4	Z4	X5	Y5	Z5	X6	Y6	Z6	X7	Y7	Z7	X8	Y8	Z8	X9	Y9	Z9	X10	Y10	Z10	X11	Y11	Z11	X12	Y12	Z12	X13	Y13	Z13	X14	Y14	Z14	X15	Y15	Z15	X16	Y16	Z16	X17	Y17	Z17	X18	Y18	Z18	X19	Y19	Z19	X20	Y20	Z20	X21	Y21	Z21	X22	Y22	Z22	X23	Y23	Z23	X24	Y24	Z24	X25	Y25	Z25	X26	Y26	Z26	X27	Y27	Z27	X28	Y28	Z28	X29	Y29	Z29	X30	Y30	Z30	X31	Y31	Z31	X32	Y32	Z32	X33	Y33	Z33	X34	Y34	Z34	X35	Y35	Z35	X36	Y36	Z36	X37	Y37	Z37	X38	Y38	Z38	X39	Y39	Z39	X40	Y40	Z40	X41	Y41	Z41	X42	Y42	Z42	X43	Y43	Z43	X44	Y44	Z44	X45	Y45	Z45	X46	Y46	Z46	X47	Y47	Z47	X48	Y48	Z48	X49	Y49	Z49	
1	0.0050	560.613480	1430.737616	565.228234	586.602255	1422.521239	162.127363	539.131434	1479.735206	357.944795	643.258508	1382.587104	365.817803	530.288106	1145.284360	635.882204	624.308274	1020.030968	779.385563	561.049409	1114.041757	128.785222	734.810601	1039.190040	23.457088	471.681868	973.857258	364.993359	631.349191	1017.914439	230.405589	597.520507	1020.683565	515.197728	677.738285	969.190138	262.041119	647.255769	971.350225	495.153973	481.483227	999.914317	409.935776	493.656491	995.951738	325.113030	547.955091	886.440795	539.524430	564.659441	886.365086	206.093790	583.727601	802.169669	552.730172	602.088179	714.664050	549.999003	576.565683	632.972752	559.304746	635.639650	712.628697	531.924044	557.238304	499.080460	515.885187	561.020776	484.276047	412.076597	528.478852	397.939171	533.724183	542.282398	310.633495	517.426006	513.680176	229.639462	514.129423	563.193066	313.567816	484.489227	502.651733	100.892616	499.769544	514.986685	114.260448	421.516747	451.077051	53.347146	443.019601	726.851795	86.360696	498.513125	615.487851	48.084728	537.580470	656.942091	71.318189	435.755525	594.074882	760.150973	188.769389	604.833453	673.514874	194.036026	638.289330	671.492085	211.253093	568.585866	592.465610	203.634343	561.136336	495.020523	224.774265	558.312448	468.502106	322.469945	536.176324	398.909440	199.918519	554.513543	315.368497	215.378457	527.996274	228.870812	214.589889	573.741160	317.549336	250.277125	518.816851	113.791096	231.334052	541.532540	118.190344	309.755982	468.624190	58.128443	277.749102	750.618640	82.509022	249.478504	673.799026	70.090438	302.584813	646.369822	46.385598	195.979166	
2	0.0100	560.657235	1430.739784	565.240966	586.622692	1422.522572	162.101978	539.163553	1479.748899	357.950690	643.259371	1382.574336	365.801133	530.292492	1145.268473	635.863614	624.310197	1020.005173	779.354955	561.045947	1114.034417	128.785393	734.811214	1039.181500	23.451385	471.685158	973.849840	364.980260	631.372716	1017.902412	230.410425	597.518999	1020.677234	515.197488	677.754238	969.192518	262.025975	647.239855	971.346702	495.141215	481.477111	999.907159	409.934238	493.653086	995.945430	325.085796	547.965039	886.429807	539.482787	564.668641	886.360387	206.072605	583.744377	802.158253	552.726061	602.088146	714.672406	549.986998	576.559190	632.975914	559.307410	635.661017	712.633757	531.906597	557.251520	499.085151	515.886139	561.077949	484.285900	412.063069	528.482331	397.914644	533.711529	542.293320	310.616534	517.441636	513.671494	229.639696	514.145379	563.196269	313.573367	484.470252	502.670725	100.887951	499.770201	514.997929	114.260313	421.518390	451.062819	53.361244	443.018072	726.851126	86.362243	498.523153	615.488638	48.063084	537.588082	656.954300	71.287534	435.775591	594.089240	760.145075	188.758718	604.845681	673.522762	194.034370	638.294968	671.492494	211.237638	568.599873	592.458892	203.623353	561.134747	495.007422	224.758053	558.317382	468.499380	322.466765	536.171987	398.896991	199.927027	554.491393	315.358167	215.354022	528.015447	228.860551	214.583935	573.743908	317.545150	250.280146	518.817306	113.784508	231.329458	541.533291	118.182565	309.748072	468.625111	58.114485	277.750492	750.644908	82.520877	249.468504	673.802797	70.114654	302.585776	646.337347	46.382332	195.980967	
3	0.0150	560.655399	1430.736052	565.221379	586.630093	1422.522711	162.104184	539.180089	1479.735053	357.936299	643.291426	1382.575339	365.820609	530.296348	1145.257469	635.835556	624.295909	1020.004862	779.349963	561.044660	1114.027273	128.789135	734.800524	1039.169297	23.421473	471.709119	973.856177	364.975767	631.365750	1017.903265	230.392199	597.529993	1020.676510	515.192576	677.749909	969.200128	262.015980	647.263439	971.355231	495.153248	481.493019	999.934022	409.927289	493.684372	995.953970	325.083716	547.974014	886.434064	539.516593	564.682878	886.362507	206.079920	583.745415	802.161807	552.723201	602.102274	714.665262	549.980904	576.560561	632.977565	559.303760	635.655690	712.629208	531.886985	557.257789	499.083711	515.883251	561.072547	484.288846	412.060753	528.481535	397.952381	533.710586	542.288150	310.631356	517.410746	513.661460	229.631058	514.126190	562.967155	313.360183	484.022962	502.650533	100.902436	499.766146	514.991886	114.258204	421.534375	451.059018	53.347211	443.026055	726.844487	86.361643	498.509983	615.526572	48.082687	537.576004	656.939956	71.319711	435.763844	594.089913	760.146625	188.753594	604.847764	673.511198	194.024488	638.297593	671.503881	211.247639	568.596146	592.454226	203.619377	561.135282	495.008440	224.754728	558.319368	468.505663	322.463792	536.175009	398.915390	199.918073	554.492745	315.366865	215.351000	528.002810	228.865797	214.585968	573.744941	317.549070	250.270744	518.846630	113.789018	231.334112	541.533440	118.189268	309.749442	468.623912	58.112153	277.761831	750.637619	82.488117	249.485135	673.790700	70.100580	302.587505	646.346912	46.370823	195.970217	
4	0.0200	561.150452	1430.768389	565.384901	586.653404	1422.514912	162.097400	539.196815	1479.964414	357.770800	643.311681	1382.568585	365.800296	530.301533	1145.250024	635.827102	624.291210	1019.978497	779.319544	560.952661	1113.916591	128.804800	734.786618	1039.157573	23.431284	471.742642	973.847060	364.967525	630.749735	1018.264455	230.021691	597.858629	1020.532047	515.188305	677.475230	969.110692	261.781543	646.764170	971.668368	495.495781	481.504631	999.937898	409.938308	493.742718	995.735164	324.985745	547.924119	886.631335	540.161692	564.680868	886.368302	206.067669	583.755584	802.154447	552.714780	602.114633	714.656882	549.973678	576.554381	632.990652	559.302795	635.443538	712.542347	531.771113	557.257527	499.088371	515.866133	561.045530	484.258468	412.036083	528.484802	397.939256	533.693281	542.960489	311.180188	517.936869	513.665353	229.644570	514.136035	563.441475	313.484300	484.425091	502.675363	100.899520	499.757246	515.776877	113.941562	421.238677	451.054224	53.364611	443.009830	726.848212	86.365566	498.521536	615.480477	48.051596	537.608138	656.934435	71.312207	435.777054	594.104099	760.148034	188.760091	604.652101	672.788158	194.785977	638.294769	670.358487	211.519044	568.613070	592.462073	203.627280	561.599538	494.573608	224.459649	558.329374	468.496457	322.463525	536.168173	398.910065	199.923213	554.491421	315.352707	215.356964	528.772037	228.613874	214.551380	573.762640	317.557140	250.264121	518.835417	113.789430	231.320360	541.252968	118.539486	309.896790	468.629308	58.126988	277.751952	751.009451	82.179479	249.227301	673.804046	70.100642	302.590007	646.398685	46.374021	195.964208	
5	0.0250	560.820257	1430.967194	565.252431	586.403160	1422.796168	162.279873	539.177804	1479.848275	357.692905	643.085233	1382.774139	365.858155	530.366320	1145.361144	635.866654	624.089878	1019.328527	779.202891	560.889703	1114.090009	129.406584	734.732379	1039.250202	23.613010	471.518139	973.690687	364.746761	630.733044	1018.834726	230.446147	597.839269	1020.766201	515.168091	677.825240	969.733074	262.438633	646.913610	972.049752	495.672550	481.590080	999.828471	410.298893	493.825573	995.913920	324.997114	547.776776	886.653522	539.841672	564.625913	886.599951	206.274992	583.636515	802.234485	552.723420	602.202383	714.904093	550.182102	576.496191	633.085268	559.484483	635.527532	712.757773	531.986078	557.047859	499.168334	515.952805	561.062919	484.465040	412.070050	528.493557	397.896962	533.887710	543.181486	311.300601	518.046272	513.751858	229.829921	514.150364	563.326064	313.422188	484.799755	501.539061	101.224925	500.143433	514.569025	114.620747	421.711529	451.022294	53.140333	442.990730	726.772335	86.832675	499.007462	615.417547	48.139322	537.593447	657.147543	71.713702	436.099750	593.955029	760.473894	189.323498	604.484096	673.482088	195.123648	638.214652	670.820757	212.013396	568.344415	592.956705	204.057776	561.698978	495.234865	224.694362	558.214163	468.767078	322.450866	536.148933	399.174315	200.170486	554.321969	315.732613	215.648905	528.702874	228.684211	214.558007	573.780084	318.240645	250.582843	518.522753	114.267733	231.684024	541.382934	118.593099	309.946684	468.638712	58.244080	277.986977	752.107324	81.922541	249.953499	673.995675	70.341997	302.682810	646.628468	46.413335	196.170042	
6	0.0300	560.861075	1431.035008	565.308653	586.603633	1422.778548	162.100546	539.201483	1480.036384	357.804672	643.281519	1382.784850	365.778414	530.347774	1145.397722	635.882247	624.488008	1019.837656	779.238215	560.917676	1114.070549	129.109962	734.714583	1039.268050	23.442161	472.239470	973.664375	364.856526	630.835020	1018.354857	229.928537	597.775142	1020.855481	515.184612	677.424150	969.338009	261.845732	646.924738	972.117361	495.713049	481.881840	999.767150	409.632117	493.787395	995.842909	324.983658	548.088760	886.636694	539.908923	564.678877	886.437364	206.177790	583.794383	802.320745	552.758524	602.168227	714.984155	550.170209	576.542839	633.227389	559.467702	635.573217	712.888465	531.990778	557.276332	499.261469	516.052206	561.020256	484.511956	412.062161	528.508309	398.146674	533.822173	543.008640	311.260969	517.984793	513.757263	229.875680	514.163369	563.268911	313.584971	484.353063	502.865692	101.036758	499.719732	516.030243	114.101520	421.474944	451.109371	53.469545	442.898576	726.828663	86.741950	498.869533	615.398819	48.179209	537.629699	657.106328	71.578283	436.086353	594.057798	760.283775	188.800916	604.583223	673.247376	195.018587	638.555769	670.844080	211.088032	568.409849	592.769003	203.920977	561.694878	495.016274	224.569618	558.207494	468.802802	322.469128	536.145655	399.051134	200.075813	554.520083	315.552868	215.514492	528.650643	228.709299	214.550870	573.957418	317.946826	250.565598	518.714633	114.029218	231.568866	541.405694	118.595265	309.956420	468.708765	58.277192	277.692697	751.430534	82.160899	249.466906	674.002872	70.388660	302.701697	646.675811	46.451415	196.222851	
7	0.0350	560.857572	1431.052612	565.311395	586.611499	1422.790417	162.089945	539.219691	1480.029308	357.826101	643.287197	1382.794863	365.774950	530.362660	1145.403610	635.872405	624.522916	1019.862734	779.241733	560.903248	1114.067478	129.106556	734.706911	1039.277968	23.423678	472.361255	973.611247	364.857901	630.853587	1018.346195	229.908039	597.755436	1020.896452	515.186141	677.802507	969.402839	262.227007	646.949723	972.150052	495.726145	481.940298	999.759819	409.577375	493.789882	995.826406	324.967602	548.129254	886.633330	539.887117	564.670575	886.424488	206.177687	583.798104	802.331306	552.756237	602.161732	715.012197	550.168560	576.552859	633.243226	559.492405	635.596561	712.918242	531.990098	557.306750	499.274309	516.067316	561.079407	484.545526	412.065466	528.501414	398.163281	533.811578	542.978523	311.254987	517.971662	513.760590	229.882334	514.153482	563.277703	313.606488	484.327836	502.900285	101.043387	499.715693	514.855435	114.501284	421.683337	451.122477	53.492925	442.874754	726.826547	86.745415	498.874100	615.384603	48.199890	537.607991	657.110326	71.587378	436.102744	594.061645	760.285656	188.778683	604.556929	673.293699	195.051693	638.570225	670.846349	211.103678	568.397895	592.771556	203.929667	561.689073	495.001666	224.551034	558.185341	468.838390	322.466639	536.133231	399.064126	200.071112	554.520591	315.564020	215.511530	528.634186	228.719883	214.551812	573.973836	317.959710	250.578941	518.719341	114.043086	231.591682	541.541343	118.494071	309.828213	468.717329	58.285539	277.665079	751.357813	82.176571	249.437622	673.990103	70.434064	302.691626	646.699947	46.442316	196.233277	
